#!OML:ASF E:/inclinewalkrobotboard/Project1/Captureday1/Session1/subject1.ASF
:FULLY-SPECIFIED
:DEGREES
326
root 0 0 0 -9.77257691028142 -47.82412761474363 -1.1349945694693702
lowerback 0.8453331273378115 -1.3196045365391385 0.37484194652822245
upperback -2.595746560747512 -1.5542332248589283 0.48581783378858157
thorax -3.0936609246711804 -0.7658045767828137 0.6067367052477577
lowerneck -16.604136075226094 -1.9869266357318116 -7.576874381670738
upperneck 0.07699851279504344 -2.494517943001669 6.8542156891027295
head 3.2104291358702053 -0.958279372280158 3.1852701364350033
rclavicle -1.0118767061089319E-14 -1.7678872007532995E-16
rhumerus 2.592702999613366 -12.726904270652193 -67.52606839307765
rradius 18.568723109622475
rwrist 57.82106821765686
rhand -7.478867395989695 21.85400064791466
rfingers 7.1250199999999095
rthumb 18.419517553103884 -7.843494956585534
lclavicle -5.927453245510512E-15 5.703510140298642E-15
lhumerus -27.35185453132805 -0.35020131784398956 80.98538979751233
lradius 33.17617529593953
lwrist -40.06814565967848
lhand -9.84608842617543 14.408270966003641
lfingers 7.032127538325199
lthumb 15.783915213282818 68.7288032146945
rfemur -0.24773828851218127 7.9179385611641555 35.872798463550566
rtibia 24.231040284384566
rfoot -16.01457585324898 -5.148102635509542
rtoes 11.79528056900915
lfemur 16.54254970870347 -3.39913271952347 -29.64607668161328
ltibia 17.40119562656166
lfoot -15.573660362474445 -3.5112604494148254
ltoes -9.024769881461747
327
root 0 0 0 -9.785705351100322 -47.34300002828587 -1.1810725449410022
lowerback 0.7490739256037511 -1.3198844451837664 0.41045249524299754
upperback -2.611838639355987 -1.5462911449696182 0.48014389306226
thorax -3.0594170135300964 -0.7615351670050239 0.5819511936514166
lowerneck -16.55792401579595 -1.9739331036390446 -7.545652014671064
upperneck 0.06127716247043402 -2.4758994885827987 6.748340209513262
head 3.2001786616268912 -0.949729128186249 3.146601625899046
rclavicle -1.0158073674921515E-14 -1.6449662217435642E-16
rhumerus 2.5714736507893177 -12.699299763980475 -67.55118235580346
rradius 18.553372244752858
rwrist 57.84771676001837
rhand -7.481680182412067 21.856628694651995
rfingers 7.12501999999991
rthumb 18.41699509224478 -7.841208076921564
lclavicle -6.101833100717005E-15 5.613345334448859E-15
lhumerus -27.570644012719875 -0.3768123130599861 81.0828985568275
lradius 32.7406407486709
lwrist -40.16807656519897
lhand -9.771772250640481 14.426545811714465
lfingers 7.033131290513665
lthumb 15.859221963488087 67.6777442531347
rfemur -0.16397317437606063 7.898301806423273 35.8867695564625
rtibia 24.324378679773194
rfoot -15.820512224868317 -5.072500418332332
rtoes 11.82950297212148
lfemur 17.15907037060539 -3.538071606872885 -29.420112148634303
ltibia 17.460586936011776
lfoot -14.728834963767735 -4.176724826988702
ltoes -10.07225041462987
328
root 0 0 0 -9.792781455676668 -46.77645372418759 -1.2271947509441217
lowerback 0.6500788713818881 -1.3216112919613208 0.44929786212580725
upperback -2.6264078659288166 -1.539615678107603 0.4749070440374735
thorax -3.0222946149950776 -0.7578515206487566 0.5559515890666575
lowerneck -16.500194886226932 -1.9576637365669045 -7.5106444755186175
upperneck 0.04783502688997743 -2.4526503933428416 6.629426675015827
head 3.1884934867853882 -0.9390482085319837 3.103307766888913
rclavicle -1.0205790674535865E-14 -1.5082276697633648E-16
rhumerus 2.5475237603474907 -12.666118428152233 -67.58154943034256
rradius 18.54031970904056
rwrist 57.873774012733634
rhand -7.48467327880979 21.857540641507253
rfingers 7.12501999999991
rthumb 18.41429748244914 -7.840550109226534
lclavicle -6.321430131676966E-15 5.508171775280842E-15
lhumerus -27.808418307747708 -0.4053795894620933 81.18084066880687
lradius 32.285440831029845
lwrist -40.26029992190155
lhand -9.66850962828757 14.448681908330077
lfingers 7.0341255885998795
lthumb 15.96229339362639 66.54717237517916
rfemur -0.14837768030918852 7.875667654076372 35.88116060689963
rtibia 24.434702334939974
rfoot -15.577011318770527 -4.999042134208314
rtoes 11.933037420288349
lfemur 17.79811474271093 -3.6919404012532646 -29.14373276363944
ltibia 17.60311749028426
lfoot -13.74029239810636 -4.932982468599338
ltoes -11.225240461157364
329
root 0 0 0 -9.793304641915705 -46.0998029425199 -1.2731468239014612
lowerback 0.5459593574136683 -1.3249262195268754 0.49265963098154497
upperback -2.6395636582407973 -1.5341221750649399 0.46999097877194196
thorax -2.9811500824976807 -0.7546916318783228 0.5279228702165443
lowerneck -16.427704208604293 -1.93717695862139 -7.4705148815575
upperneck 0.03684623260258668 -2.423468489978116 6.493310966061095
head 3.174836345164568 -0.9256298846391963 3.0539010080226334
rclavicle -1.0262632356856395E-14 -1.3579785108851574E-16
rhumerus 2.521852845313239 -12.626397550816568 -67.61663346059537
rradius 18.527926067298935
rwrist 57.8997402729194
rhand -7.487429056426787 21.856395531176208
rfingers 7.12501999999991
rthumb 18.4118158610768 -7.841869978022938
lclavicle -6.591883439289861E-15 5.389406021326524E-15
lhumerus -28.069335469655194 -0.4318725555767706 81.27902471996777
lradius 31.805509200302907
lwrist -40.3446496338136
lhand -9.534721294789017 14.474426091239089
lfingers 7.0351060850125915
lthumb 16.09463435619484 65.30413302230292
rfemur -0.19264807748420054 7.851393618016605 35.85810425688795
rtibia 24.560178463181334
rfoot -15.296873475154243 -4.9298968704823
rtoes 12.098022187069956
lfemur 18.44248938264375 -3.8525675719715062 -28.81594337415182
ltibia 17.862213516284797
lfoot -12.615981344989864 -5.775066264990372
ltoes -12.467604402434004
330
root 0 0 0 -9.787549294485185 -45.29333564464959 -1.3183657368487276
lowerback 0.43442690779812665 -1.329856655968086 0.5410888404574905
upperback -2.65155094723028 -1.5296676664232471 0.46515936726722995
thorax -2.935019865739849 -0.7519621224983049 0.49731071524727755
lowerneck -16.33765232326078 -1.9116788178187984 -7.424460564704025
upperneck 0.02869661812870561 -2.3873312594178158 6.336837847187501
head 3.1588125933646864 -0.9089917811033715 2.9972761480015935
rclavicle -1.0328368868175581E-14 -1.1956650908984599E-16
rhumerus 2.4960413008105706 -12.579764388287371 -67.65417077131156
rradius 18.51536616871733
rwrist 57.92471661740916
rhand -7.489467999356567 21.852739462292746
rfingers 7.12501999999991
rthumb 18.40999411896571 -7.845628367784311
lclavicle -6.9161114150715245E-15 5.258681775911076E-15
lhumerus -28.353639778626295 -0.4499239844164187 81.37426404579693
lradius 31.29975482307775
lwrist -40.419599250860486
lhand -9.368952241910279 14.503321715473849
lfingers 7.036059103431113
lthumb 16.25759506061974 63.922163343845895
rfemur -0.2860297147571309 7.827416225180118 35.819696730379725
rtibia 24.697038137752298
rfoot -14.995000913530054 -4.867560529834527
rtoes 12.312477934363267
lfemur 19.049764706099744 -4.000925285743893 -28.44764871494818
ltibia 18.286244511657628
lfoot -11.408233895752552 -6.665472641341934
ltoes -13.727342585725241
